<?xml version="1.0" encoding="iso-8859-1"?>
<!-- Generator: Adobe Illustrator 19.0.0, SVG Export Plug-In . SVG Version: 6.00 Build 0)  -->
<svg version="1.1" id="Capa_1" xmlns="http://www.w3.org/2000/svg" xmlns:xlink="http://www.w3.org/1999/xlink" x="0px" y="0px"
	 viewBox="0 0 393.665 393.665" style="enable-background:new 0 0 393.665 393.665;" xml:space="preserve">
<g>
	<path d="M195.521,375.774c2.331,0,4.662-0.583,6.993-1.457c6.411-2.914,10.49-9.033,10.49-16.026V233.286l151.522,137.826
		c3.205,2.914,7.576,4.662,11.656,4.662c2.331,0,4.662-0.583,6.993-1.457c6.411-2.914,10.49-9.033,10.49-16.026V35.433
		c0-6.993-4.079-13.112-10.49-16.026c-6.411-2.914-13.695-1.457-18.94,2.914L212.713,160.147V35.433
		c0-6.993-4.079-13.112-10.49-16.026s-13.695-1.457-18.94,2.914L5.828,183.75C2.331,186.955,0,191.617,0,196.571
		c0,4.954,2.04,9.616,5.828,12.821l178.038,161.72C187.071,374.317,191.15,375.774,195.521,375.774z M358.699,75.062v243.892
		L224.66,196.862L358.699,75.062z M178.038,318.662L44,196.862l134.038-121.8V318.662z"/>
</g>
<g>
</g>
<g>
</g>
<g>
</g>
<g>
</g>
<g>
</g>
<g>
</g>
<g>
</g>
<g>
</g>
<g>
</g>
<g>
</g>
<g>
</g>
<g>
</g>
<g>
</g>
<g>
</g>
<g>
</g>
</svg>
