<?xml version="1.0" encoding="iso-8859-1"?>
<!-- Generator: Adobe Illustrator 19.0.0, SVG Export Plug-In . SVG Version: 6.00 Build 0)  -->
<svg version="1.1" id="Capa_1" xmlns="http://www.w3.org/2000/svg" xmlns:xlink="http://www.w3.org/1999/xlink" x="0px" y="0px"
	 viewBox="0 0 393.082 393.082" style="enable-background:new 0 0 393.082 393.082;" xml:space="preserve">
<g>
	<path d="M191.15,373.917c2.331,0.874,4.662,1.457,6.993,1.457c4.371,0,8.45-1.457,11.656-4.662l177.455-161.429
		c3.497-3.205,5.828-7.867,5.828-12.821c0-4.954-2.04-9.616-5.828-12.821L209.799,22.211c-5.245-4.662-12.53-5.828-18.94-2.914
		s-10.49,9.033-10.49,16.026v125.005L29.139,22.211c-5.245-4.662-12.53-5.828-18.94-2.914S0,28.039,0,35.032V357.89
		c0,6.993,4.079,13.112,10.49,16.026c2.331,0.874,4.662,1.457,6.993,1.457c4.371,0,8.45-1.457,11.656-4.662L180.66,232.885V357.89
		C180.66,364.883,184.74,371.003,191.15,373.917z M34.967,318.261v-243.6l134.038,121.8L34.967,318.261z M215.627,74.661
		l134.038,121.8l-134.038,121.8V74.661z"/>
</g>
<g>
</g>
<g>
</g>
<g>
</g>
<g>
</g>
<g>
</g>
<g>
</g>
<g>
</g>
<g>
</g>
<g>
</g>
<g>
</g>
<g>
</g>
<g>
</g>
<g>
</g>
<g>
</g>
<g>
</g>
</svg>
